P3
3 3
255
0
0
0
1
1
1
2
2
2
111
111
111
222
222
222
255
255
255
0
0
0
1
1
1
2
2
2
